<?xml version="1.0" encoding="utf-8"?>
<!-- Generator: Adobe Illustrator 18.0.0, SVG Export Plug-In . SVG Version: 6.00 Build 0)  -->
<!DOCTYPE svg PUBLIC "-//W3C//DTD SVG 1.1//EN" "http://www.w3.org/Graphics/SVG/1.1/DTD/svg11.dtd">
<svg version="1.1" id="Layer_1" xmlns="http://www.w3.org/2000/svg" xmlns:xlink="http://www.w3.org/1999/xlink" x="0px" y="0px"
	 viewBox="0 0 18 24" enable-background="new 0 0 18 24" xml:space="preserve">
<g id="Ssl5mw_1_">
	<g>
		<g>
			<path fill="none" stroke="#A6A8AC" stroke-miterlimit="10" d="M8.1,0c0.3,0,0.7,0,1,0c0.2,0,0.4,0.1,0.6,0.1
				c1.6,0.2,3,0.7,4.2,1.7c1.6,1.2,2.6,2.7,3,4.6c0.1,0.3,0.1,0.7,0.2,1c0,0.3,0,0.6,0,0.9c0,0.1,0,0.1,0,0.2
				C17,8.9,17,9.4,16.9,9.8c-0.3,1.6-0.9,3.1-1.6,4.5c-1.7,3.2-4,5.9-6.6,8.5c0,0-0.1,0.1-0.1,0.1c-0.1-0.1-0.2-0.1-0.2-0.2
				c-0.9-1-1.9-2-2.8-3c-1.6-1.9-3.1-4-4.2-6.3c-0.6-1.3-1.1-2.6-1.3-4C0.1,8.9,0,8.6,0,8.2C0,8,0,7.7,0,7.4c0-0.1,0-0.1,0-0.2
				c0.1-0.5,0.1-0.9,0.3-1.4C1.4,2.6,3.7,0.8,7,0.1C7.4,0.1,7.7,0,8.1,0z M8.5,2.9c-2.4,0-4.3,1.9-4.3,4.3c0,2.3,1.9,4.3,4.3,4.3
				c2.4,0,4.3-1.9,4.3-4.3C12.8,4.8,10.9,2.8,8.5,2.9z"/>
		</g>
	</g>
</g>
</svg>
