<?xml version="1.0" encoding="UTF-8" standalone="no"?>
<svg
   xmlns:dc="http://purl.org/dc/elements/1.1/"
   xmlns:cc="http://creativecommons.org/ns#"
   xmlns:rdf="http://www.w3.org/1999/02/22-rdf-syntax-ns#"
   xmlns:svg="http://www.w3.org/2000/svg"
   xmlns="http://www.w3.org/2000/svg"
   xml:space="preserve"
   enable-background="new 0 0 27 27"
   viewBox="0 0 27 27"
   height="27px"
   width="27px"
   y="0px"
   x="0px"
   id="Layer_1"
   version="1.1"><metadata
     id="metadata11"><rdf:RDF><cc:Work
         rdf:about=""><dc:format>image/svg+xml</dc:format><dc:type
           rdf:resource="http://purl.org/dc/dcmitype/StillImage" /></cc:Work></rdf:RDF></metadata><defs
     id="defs9" /><path
     id="path3"
     d="M25.643,24.128c-0.218-0.805-0.457-1.605-0.64-2.417c-0.072-0.317-0.306-0.63-0.074-0.995l-0.053,0.055  C26.22,18.672,27,16.177,27,13.5C27,6.044,20.957,0,13.5,0C6.044,0,0,6.044,0,13.5C0,20.955,6.044,27,13.5,27  c2.819,0,5.435-0.864,7.6-2.342l-0.142,0.146c0.153-0.097,0.395-0.155,0.563-0.11c1.237,0.319,2.465,0.672,3.698,1.012  c0.26,0.072,0.523,0.127,0.841,0.201c-0.007-0.156,0.002-0.229-0.015-0.295C25.914,25.115,25.776,24.623,25.643,24.128   M18.49,20.467c-0.105-0.026-0.255,0.009-0.352,0.069c-0.525,0.332-1.061,0.638-1.654,0.838c-0.848,0.285-1.707,0.529-2.612,0.51  c-0.653-0.016-1.313-0.014-1.954-0.119c-0.543-0.089-1.069-0.305-1.59-0.499c-0.354-0.131-0.694-0.304-1.025-0.487  c-1.041-0.578-1.899-1.367-2.603-2.322c-0.446-0.606-0.795-1.266-1.052-1.969C5.259,15.422,5.06,14.326,5.11,13.18  c0.051-1.151,0.31-2.244,0.798-3.281c0.543-1.152,1.32-2.126,2.314-2.927c0.902-0.726,1.912-1.242,3.024-1.557  c0.905-0.257,1.833-0.35,2.768-0.276c0.569,0.046,1.144,0.121,1.697,0.26c0.864,0.216,1.672,0.587,2.416,1.085  c1.039,0.695,1.899,1.567,2.551,2.636c0.443,0.729,0.757,1.512,0.98,2.34c0.276,1.022,0.271,2.053,0.191,3.088  c-0.032,0.408-0.164,0.812-0.262,1.214c-0.194,0.798-0.533,1.534-0.972,2.226c-0.146,0.228,0.001,0.422,0.046,0.621  c0.114,0.506,0.264,1.006,0.399,1.506c0.083,0.31,0.169,0.617,0.251,0.926c0.011,0.041,0.005,0.086,0.01,0.185  c-0.197-0.047-0.363-0.082-0.525-0.126C20.028,20.887,19.261,20.667,18.49,20.467"
     fill="#FFFFFF" /><polygon
     id="polygon5"
     points="18,14.143 14.143,14.143 14.143,18 12.856,18 12.856,14.143 9,14.143 9,12.856 12.856,12.856   12.856,9 14.143,9 14.143,12.856 18,12.856 "
     fill="#FFFFFF" /></svg>