<?xml version="1.0" encoding="utf-8"?>
<!-- Generator: Adobe Illustrator 18.0.0, SVG Export Plug-In . SVG Version: 6.00 Build 0)  -->
<!DOCTYPE svg PUBLIC "-//W3C//DTD SVG 1.1//EN" "http://www.w3.org/Graphics/SVG/1.1/DTD/svg11.dtd">
<svg version="1.1" id="Layer_1" xmlns="http://www.w3.org/2000/svg" xmlns:xlink="http://www.w3.org/1999/xlink" x="0px" y="0px"
	 viewBox="0 0 25 25" enable-background="new 0 0 25 25" xml:space="preserve">
<g id="_x38_2cHkh_1_">
	<g>
		<path fill="#FFFFFF" d="M12.5,7.1c-2,0-3.6-1.6-3.6-3.6c0-2,1.5-3.6,3.6-3.5c2,0,3.5,1.5,3.5,3.6C16,5.6,14.5,7.1,12.5,7.1z"/>
		<path fill="#FFFFFF" d="M24.1,10.7c0,2-1.6,3.6-3.6,3.6c-2,0-3.5-1.6-3.5-3.6c0-2,1.5-3.6,3.6-3.6C22.5,7.2,24,8.7,24.1,10.7z"/>
		<path fill="#FFFFFF" d="M8,10.7c0,2-1.6,3.6-3.6,3.6c-2,0-3.6-1.5-3.5-3.6c0-2,1.5-3.6,3.6-3.5C6.5,7.2,8,8.7,8,10.7z"/>
		<path fill="#FFFFFF" d="M12.5,19.6c-2,0-3.6-1.6-3.6-3.6c0-2,1.5-3.6,3.6-3.5c2,0,3.5,1.5,3.5,3.6C16,18.1,14.5,19.6,12.5,19.6z"
			/>
		<path fill="#FFFFFF" d="M12.6,25c-1.3-0.1-2.5-0.1-3.6-0.6c-0.2-0.1-0.3-0.1-0.5-0.2C8.2,24,8,23.7,8,23.2c0-0.6,0.1-1.2,0.3-1.7
			c0.3-0.8,0.9-1.2,1.6-1.7c0,0,0.1,0,0.2,0c0.9,0.6,1.8,0.8,2.8,0.7c0.7-0.1,1.4-0.3,2-0.7c0.1-0.1,0.2-0.1,0.3,0
			c0.7,0.5,1.4,1,1.6,1.9c0.1,0.5,0.2,1.1,0.2,1.6c0,0.4-0.3,0.7-0.6,0.9c-0.6,0.2-1.2,0.4-1.8,0.6C13.9,24.9,13.2,24.9,12.6,25z"/>
		<path fill="#FFFFFF" d="M16.2,18.5c0.6-1,0.8-2,0.7-3.1c0-0.1,0-0.2,0.1-0.2c0.3-0.3,0.6-0.5,0.9-0.8c0,0,0.2,0,0.2,0
			c0.9,0.6,1.8,0.8,2.8,0.7c0.8-0.1,1.5-0.3,2.2-0.8c0.4,0.4,0.9,0.8,1.3,1.3c0.4,0.4,0.5,1,0.5,1.5c0,0.2,0,0.4,0.1,0.7
			c0.1,0.5-0.2,0.9-0.7,1.1c-0.6,0.2-1.2,0.5-1.8,0.6c-0.8,0.1-1.6,0.2-2.4,0.2c-1.2,0-2.4-0.1-3.4-0.7
			C16.5,18.8,16.4,18.6,16.2,18.5z"/>
		<path fill="#FFFFFF" d="M8.7,18.5c-0.4,0.5-1,0.6-1.5,0.8c-1,0.3-2.1,0.4-3.2,0.3c-1-0.1-2-0.2-3-0.5c-0.2-0.1-0.3-0.1-0.4-0.2
			c-0.4-0.2-0.6-0.5-0.6-1c0.1-0.7,0.1-1.3,0.4-1.9c0.3-0.7,0.9-1.1,1.5-1.5c0,0,0.1,0,0.2,0c0.9,0.6,1.8,0.8,2.8,0.7
			c0.8-0.1,1.5-0.3,2.1-0.8c0.3,0.3,0.7,0.5,1,0.8c0.1,0.1,0.1,0.2,0.1,0.2C7.9,16.5,8.2,17.5,8.7,18.5z"/>
		<path fill="#FFFFFF" d="M12.5,11.6c-0.8,0-1.5,0.2-2.1,0.6c-0.1,0.1-0.3,0.1-0.4,0.1C9.6,12.1,9.3,12,9,11.9
			c-0.2-0.1-0.2-0.1-0.2-0.3C9,10.7,8.9,9.8,8.5,8.9c-0.1-0.2-0.1-0.3,0-0.4C9,8.1,9.4,7.7,9.9,7.3c0,0,0.2,0,0.2,0
			c0.9,0.6,1.8,0.8,2.8,0.7c0.7-0.1,1.3-0.3,1.9-0.7c0.2-0.1,0.2-0.1,0.4,0c0.4,0.4,0.8,0.7,1.2,1.1c0.1,0.1,0.1,0.3,0,0.4
			c-0.4,0.9-0.5,1.8-0.3,2.7c0,0.2,0,0.2-0.1,0.3c-0.3,0.1-0.6,0.2-1,0.3c-0.1,0-0.3,0-0.4-0.1C14,11.8,13.3,11.6,12.5,11.6z"/>
	</g>
</g>
</svg>
