<?xml version="1.0" encoding="utf-8"?>
<!-- Generator: Adobe Illustrator 18.0.0, SVG Export Plug-In . SVG Version: 6.00 Build 0)  -->
<!DOCTYPE svg PUBLIC "-//W3C//DTD SVG 1.1//EN" "http://www.w3.org/Graphics/SVG/1.1/DTD/svg11.dtd">
<svg version="1.1" id="Layer_1" xmlns="http://www.w3.org/2000/svg" xmlns:xlink="http://www.w3.org/1999/xlink" x="0px" y="0px"
	 viewBox="0 0 26.7 23.7" enable-background="new 0 0 26.7 23.7" xml:space="preserve">
<g>
	<path fill="#FFFFFF" d="M3.8,4.6c1.4,0,2.4-1.1,2.4-2.3C6.3,1,5.2,0,3.9,0C2.7,0,1.7,1,1.7,2.1C1.6,3.6,2.7,4.6,3.8,4.6z"/>
	<path fill="#FFFFFF" d="M22.7,4.6c1.4,0,2.4-1.1,2.4-2.3C25.1,1,24.1,0,22.8,0c-1.3,0-2.2,1-2.3,2.1C20.4,3.6,21.6,4.6,22.7,4.6z"
		/>
	<path fill="#FFFFFF" d="M25.8,21.5c-0.3-0.3-0.6-0.6-1-0.7c-0.1,0-0.1,0-0.1,0c-0.4,0.3-0.9,0.5-1.5,0.6c-0.4,0-0.7,0-1-0.1
		c-0.4-0.1-0.8-0.3-1.2-0.6c0,0-0.1,0-0.1,0c-0.2,0.1-0.5,0.2-0.7,0.4l-3.1-5.7v-4l2.1-3.9c2.5,0,5,0,7.5,0c0-0.1,0-0.2-0.1-0.3
		c-0.2-0.7-0.5-1.3-0.9-1.8c-0.3-0.3-0.6-0.6-1-0.7c-0.1,0-0.1,0-0.1,0c-0.4,0.3-0.9,0.5-1.5,0.6c-0.4,0-0.7,0-1-0.1
		C21.7,5.2,21.3,5,21,4.7c0,0-0.1,0-0.1,0c-0.3,0.1-0.5,0.3-0.7,0.5c-0.2,0.2-0.4,0.4-0.6,0.7l0,0L16.7,11H10L7.3,5.8l-0.1,0
		C7.1,5.7,7,5.6,6.9,5.5c-0.3-0.3-0.6-0.6-1-0.7c-0.1,0-0.1,0-0.1,0C5.3,5.1,4.9,5.3,4.3,5.3c-0.4,0-0.7,0-1-0.1
		C2.8,5.2,2.4,5,2.1,4.7c0,0-0.1,0-0.1,0C1.7,4.8,1.4,5,1.2,5.2c-0.5,0.4-0.8,1-1,1.6C0.1,7,0,7.3,0,7.6c2.5,0,5.1,0,7.6,0l1.9,3.6
		v4.1l-3.1,5.7c-0.1-0.1-0.3-0.2-0.5-0.3c-0.1,0-0.1,0-0.1,0c-0.4,0.3-0.9,0.5-1.5,0.6c-0.4,0-0.7,0-1-0.1c-0.4-0.1-0.8-0.3-1.2-0.6
		c0,0-0.1,0-0.1,0c-0.3,0.1-0.5,0.3-0.7,0.5c-0.5,0.4-0.8,1-1,1.6C0.1,23.1,0,23.4,0,23.7c2.6,0,5.2,0,7.9,0c0-0.1,0-0.2-0.1-0.3
		c-0.2-0.7-0.5-1.3-0.9-1.8c0,0,0,0-0.1-0.1L9.8,16h6.9l3,5.6c-0.3,0.4-0.5,0.8-0.7,1.2c-0.1,0.3-0.2,0.6-0.2,0.9c2.6,0,5.2,0,7.9,0
		c0-0.1,0-0.2-0.1-0.3C26.5,22.7,26.2,22,25.8,21.5z"/>
	<path fill="#FFFFFF" d="M20.5,18.2c-0.1,1.4,1.1,2.4,2.2,2.5c1.4,0,2.4-1.1,2.4-2.3c0-1.3-1.1-2.3-2.3-2.3
		C21.6,16,20.6,17.1,20.5,18.2z"/>
	<path fill="#FFFFFF" d="M3.9,20.6c1.4,0,2.4-1.1,2.4-2.3C6.3,17.1,5.2,16,4,16c-1.3,0-2.2,1-2.3,2.1C1.6,19.6,2.7,20.6,3.9,20.6z"
		/>
</g>
</svg>
