<?xml version="1.0" encoding="utf-8"?>
<!-- Generator: Adobe Illustrator 18.0.0, SVG Export Plug-In . SVG Version: 6.00 Build 0)  -->
<!DOCTYPE svg PUBLIC "-//W3C//DTD SVG 1.1//EN" "http://www.w3.org/Graphics/SVG/1.1/DTD/svg11.dtd">
<svg version="1.1" id="Layer_1" xmlns="http://www.w3.org/2000/svg" xmlns:xlink="http://www.w3.org/1999/xlink" x="0px" y="0px"
	 viewBox="0 0 19 19" enable-background="new 0 0 19 19" xml:space="preserve">
<path fill="#FFFFFF" d="M9.5,0C4.3,0,0,4.3,0,9.5S4.3,19,9.5,19S19,14.8,19,9.5S14.8,0,9.5,0z M7,13.9c-1,0-1.8-0.8-1.8-1.8
	S6,10.2,7,10.2S8.9,11,8.9,12S8,13.9,7,13.9z M7,8.8C6,8.8,5.2,8,5.2,7C5.2,6,6,5.1,7,5.1S8.9,6,8.9,7C8.9,8,8,8.8,7,8.8z M12,13.9
	c-1,0-1.8-0.8-1.8-1.8s0.8-1.8,1.8-1.8s1.8,0.8,1.8,1.8S13,13.9,12,13.9z M12,8.8c-1,0-1.8-0.8-1.8-1.8c0-1,0.8-1.8,1.8-1.8
	S13.8,6,13.8,7C13.8,8,13,8.8,12,8.8z"/>
</svg>
