<?xml version="1.0" encoding="utf-8"?>
<!-- Generator: Adobe Illustrator 18.0.0, SVG Export Plug-In . SVG Version: 6.00 Build 0)  -->
<!DOCTYPE svg PUBLIC "-//W3C//DTD SVG 1.1//EN" "http://www.w3.org/Graphics/SVG/1.1/DTD/svg11.dtd">
<svg version="1.1" id="Layer_1" xmlns="http://www.w3.org/2000/svg" xmlns:xlink="http://www.w3.org/1999/xlink" x="0px" y="0px"
	 viewBox="0 0 26 26" enable-background="new 0 0 26 26" xml:space="preserve">
<g>
	<g>
		<path fill="#FFFFFF" d="M25,25.6l-5.1-4.9H3.1c-1.7,0-3.1-1.4-3.1-3.1V3C0,1.4,1.4,0,3.1,0h18.9C23.6,0,25,1.4,25,3V25.6z
			 M3.1,0.8c-1.2,0-2.3,1-2.3,2.3v14.6c0,1.2,1,2.3,2.3,2.3h17.2l4,3.8V3c0-1.2-1-2.3-2.3-2.3H3.1z"/>
	</g>
	<g>
		<g>
			<rect x="4.7" y="5.7" fill="#FFFFFF" width="14.9" height="2"/>
		</g>
		<g>
			<rect x="4.7" y="9" fill="#FFFFFF" width="14.9" height="2"/>
		</g>
		<g>
			<rect x="4.7" y="12.3" fill="#FFFFFF" width="14.9" height="2.1"/>
		</g>
	</g>
</g>
</svg>
