<?xml version="1.0" encoding="utf-8"?>
<!-- Generator: Adobe Illustrator 18.0.0, SVG Export Plug-In . SVG Version: 6.00 Build 0)  -->
<!DOCTYPE svg PUBLIC "-//W3C//DTD SVG 1.1//EN" "http://www.w3.org/Graphics/SVG/1.1/DTD/svg11.dtd">
<svg version="1.1" id="Layer_1" xmlns="http://www.w3.org/2000/svg" xmlns:xlink="http://www.w3.org/1999/xlink" x="0px" y="0px"
	 viewBox="0 0 26 26" enable-background="new 0 0 26 26" xml:space="preserve">
<g id="aYrvap_3_">
	<g>
		<path fill="#FFFFFF" d="M21,18.5c1.4,0.6,2.9,1.2,4.4,1.7c-1.7,1.2-3.5,0.5-5.2,0.7c-0.3-0.7-0.6-1.3-0.9-2
			c-0.3,0.4-0.6,0.7-0.8,1c-0.6,1.3-1.2,2.7-1.8,4c-0.2,0.5-0.5,0.9-0.8,1.4c-0.1,0-0.3,0-0.4,0c-0.2-0.5-0.6-1-0.7-1.6
			c-0.7-2.8-1.3-5.6-2-8.3c-0.1-0.5-0.4-1-0.7-1.5c-0.2,0-0.3,0-0.5,0c-0.7,2.2-1.3,4.4-2.1,6.8c-2.3,0.5-4.7,0.2-7.1,0.3
			c-0.5,0-1-0.2-1.5-0.4c0-0.1,0-0.3,0-0.4c2-0.5,4-1,6.1-1.6c1.6-6.2,3.2-12.3,4.8-18.4c0.9-0.1,1,0.6,1.1,1.2c0.5,2.3,1,4.7,1.5,7
			c0.4,2.2,0.8,4.5,1.2,6.7c0,0.1,0.2,0.3,0.4,0.5c2.1-1.8,1.3-4.9,2.9-6.9c0.8,0.1,0.7,0.7,0.8,1.2C20.2,12.8,20.6,15.6,21,18.5z"
			/>
	</g>
</g>
</svg>
